<?xml version="1.0" encoding="UTF-8"?>
<svg id="Layer_2" data-name="Layer 2" xmlns="http://www.w3.org/2000/svg" viewBox="0 0 71.46 71.46">
  <defs>
    <style>
      .cls-1 {
        fill: #1ed760;
      }
    </style>
  </defs>
  <g id="Layer_1-2" data-name="Layer 1">
    <path class="cls-1" d="M37.13.03C17.43-.77.83,14.63.03,34.33c-.8,19.7,14.6,36.3,34.3,37.1,19.7.8,36.3-14.6,37.1-34.3C72.23,17.43,56.83.83,37.13.03ZM52.13,52.43c-.4.8-1.3,1.2-2.2,1.1-.3,0-.5-.1-.8-.3-4.7-2.7-9.9-4.4-15.3-5.2s-10.9-.5-16.1.8c-1.1.3-2.3-.4-2.6-1.6-.3-1.1.4-2.3,1.6-2.6,5.8-1.4,11.8-1.7,17.7-.9,6,.8,11.6,2.8,16.8,5.7,1,.6,1.4,1.9.8,2.9h0l.1.1ZM56.83,43.03c-.7,1.3-2.4,1.8-3.8,1.1-5.5-3-11.5-4.9-17.8-5.8-6.3-.9-12.6-.6-18.7.7h-1c-1.1-.2-2.1-1-2.3-2.2-.3-1.5.6-3,2.1-3.3,6.8-1.5,13.7-1.8,20.7-.8,6.9,1,13.5,3.1,19.6,6.4,1.3.7,1.8,2.4,1.1,3.8h0l.1.1ZM62.03,32.43c-.7,1.3-2.1,2-3.5,1.8-.4,0-.7-.2-1.1-.4-6.4-3.3-13.4-5.6-20.6-6.6s-14.5-.8-21.6.6c-1.8.4-3.6-.8-4-2.7-.4-1.8.8-3.6,2.7-4,7.9-1.6,15.9-1.8,23.9-.7,8,1.1,15.7,3.6,22.8,7.3,1.7.9,2.3,2.9,1.5,4.6h0l-.1.1Z"/>
  </g>
</svg>